<svg width="160" height="160" viewBox="0 0 160 160" xmlns="http://www.w3.org/2000/svg">
  <defs>
    <mask id="sp3">
      <rect width="160" height="160" fill="white"/>
      <g fill="black">
        <rect x="46" y="34"  width="6" height="10" rx="2"/>
        <rect x="46" y="54"  width="6" height="10" rx="2"/>
        <rect x="46" y="74"  width="6" height="10" rx="2"/>
        <rect x="46" y="94"  width="6" height="10" rx="2"/>
        <rect x="46" y="114" width="6" height="10" rx="2"/>
        <rect x="72" y="34"  width="6" height="10" rx="2"/>
        <rect x="72" y="54"  width="6" height="10" rx="2"/>
        <rect x="72" y="74"  width="6" height="10" rx="2"/>
        <rect x="72" y="94"  width="6" height="10" rx="2"/>
        <rect x="72" y="114" width="6" height="10" rx="2"/>
      </g>
    </mask>
  </defs>

  <rect x="40" y="20" width="44" height="120" rx="9" fill="currentColor" mask="url(#sp3)"/>
  <rect x="52" y="66" width="20" height="28" rx="4" fill="#E8B04B"/>
</svg>
